<svg id="Capa_1" enable-background="new 0 0 512 512" height="512" viewBox="0 0 512 512" width="512" xmlns="http://www.w3.org/2000/svg"><g><path d="m447.872 80.845h-39.454v-43.212h39.454c3.092 0 5.095 3.266 3.691 6.021l-6.978 13.705c-.601 1.181-.601 2.578 0 3.759l6.978 13.705c1.403 2.756-.599 6.022-3.691 6.022z" fill="#cdafeb"/><path d="m447.872 152.875h-39.454v-43.211h39.454c3.092 0 5.095 3.266 3.691 6.021l-6.978 13.705c-.601 1.181-.601 2.578 0 3.759l6.978 13.705c1.403 2.756-.599 6.021-3.691 6.021z" fill="#cdafeb"/><path d="m438.557 458.676h-30.14v-101.327h30.14c5.708 0 10.335 4.627 10.335 10.335v80.657c0 5.708-4.627 10.335-10.335 10.335z" fill="#fff3c9"/><path d="m438.557 381.349h-30.14v-101.327h30.14c5.708 0 10.335 4.627 10.335 10.335v80.657c0 5.707-4.627 10.335-10.335 10.335z" fill="#ddc9f1"/><path d="m438.557 304.021h-30.14v-101.327h30.14c5.708 0 10.335 4.627 10.335 10.335v80.657c0 5.708-4.627 10.335-10.335 10.335z" fill="#b2e5fb"/><path d="m394.545 504.5h-320.699c-7.661 0-13.872-6.211-13.872-13.872v-469.256c0-7.661 6.211-13.872 13.872-13.872h320.699c7.661 0 13.872 6.211 13.872 13.872v469.256c0 7.661-6.21 13.872-13.872 13.872z" fill="#feeeb9"/><path d="m394.545 7.5h-30c7.661 0 13.872 6.211 13.872 13.872v469.256c0 7.661-6.211 13.872-13.872 13.872h30c7.661 0 13.872-6.211 13.872-13.872v-469.256c0-7.661-6.21-13.872-13.872-13.872z" fill="#ffe37b"/><path d="m412.455 37.633h35.416c3.092 0 5.095 3.266 3.691 6.021l-6.978 13.705c-.601 1.181-.601 2.578 0 3.759l6.978 13.705c1.403 2.756-.599 6.022-3.691 6.022h-34.586" fill="#92e0c4"/><path d="m438.557 304.021h-30.14v-101.327h30.14c5.708 0 10.335 4.627 10.335 10.335v80.657c0 5.708-4.627 10.335-10.335 10.335z" fill="#92e0c4"/><g fill="#fff"><path d="m325.709 185.874h-183.027c-3.798 0-6.876-3.078-6.876-6.876v-40.379c0-3.797 3.078-6.876 6.876-6.876h183.027c3.797 0 6.876 3.078 6.876 6.876v40.379c0 3.797-3.078 6.876-6.876 6.876z"/><path d="m325.709 339.414h-183.027c-3.798 0-6.876-3.078-6.876-6.876v-16.379c0-3.797 3.078-6.876 6.876-6.876h183.027c3.797 0 6.876 3.078 6.876 6.876v16.379c0 3.798-3.078 6.876-6.876 6.876z"/><path d="m325.709 402.619h-183.027c-3.798 0-6.876-3.078-6.876-6.876v-16.379c0-3.797 3.078-6.876 6.876-6.876h183.027c3.797 0 6.876 3.078 6.876 6.876v16.379c0 3.798-3.078 6.876-6.876 6.876z"/></g><path d="m324.688 7.5h33.926v497h-33.926z" fill="#c8c3ca"/><g><path d="m59.974 281.521c4.143 0 7.5-3.358 7.5-7.5v-252.649c0-3.514 2.858-6.372 6.372-6.372h83.151c4.143 0 7.5-3.358 7.5-7.5s-3.357-7.5-7.5-7.5h-83.151c-11.784 0-21.372 9.587-21.372 21.372v252.649c0 4.142 3.358 7.5 7.5 7.5z"/><path d="m457.797 107.722c-2.133-3.48-5.844-5.558-9.926-5.558h-31.954v-13.819h31.954c4.082 0 7.793-2.078 9.926-5.558 2.134-3.48 2.302-7.729.449-11.367l-6.202-12.181 6.202-12.181c1.852-3.637 1.685-7.887-.448-11.367-2.134-3.48-5.845-5.559-9.927-5.559h-31.954v-8.761c.001-11.784-9.587-21.371-21.372-21.371h-207.547c-4.143 0-7.5 3.358-7.5 7.5s3.357 7.5 7.5 7.5h130.19v109.243h-174.506c-7.927 0-14.376 6.449-14.376 14.375v40.379c0 7.927 6.449 14.376 14.376 14.376h174.506v108.41h-39.921c-4.143 0-7.5 3.358-7.5 7.5s3.357 7.5 7.5 7.5h39.921v15.131h-173.882v-15.131h103.961c4.143 0 7.5-3.358 7.5-7.5s-3.357-7.5-7.5-7.5h-104.585c-7.927 0-14.376 6.449-14.376 14.376v16.379c0 7.927 6.449 14.376 14.376 14.376h174.506v18.074h-174.506c-7.927 0-14.376 6.449-14.376 14.376v16.379c0 7.927 6.449 14.376 14.376 14.376h174.506v86.881h-243.342c-3.514 0-6.372-2.858-6.372-6.372v-186.607c0-4.142-3.357-7.5-7.5-7.5s-7.5 3.358-7.5 7.5v186.607c0 11.785 9.588 21.372 21.372 21.372h320.699c11.784 0 21.372-9.587 21.372-21.372v-24.452h22.64c9.834 0 17.835-8.001 17.835-17.835v-235.312c0-9.834-8.001-17.835-17.835-17.835h-22.64v-34.819h31.954c4.082 0 7.793-2.078 9.926-5.558 2.134-3.48 2.302-7.729.449-11.366l-6.202-12.182 6.202-12.181c1.853-3.637 1.685-7.886-.449-11.366zm-16.405 263.292c0 1.563-1.272 2.835-2.835 2.835h-22.64v-62.328h22.64c.967 0 1.909-.099 2.835-.247zm1.002-325.881-4.493 8.826c-1.682 3.306-1.682 7.253.001 10.562l4.492 8.824h-26.477v-28.212zm-299.088 133.241v-39.131h173.882v39.131zm0 216.745v-15.131h173.882v15.131zm188.882 101.881v-482h18.926v482zm68.73-6.372c0 3.514-2.858 6.372-6.372 6.372h-28.432v-482h28.432c3.514 0 6.372 2.858 6.372 6.372zm37.639-39.452h-22.64v-62.327h22.64c.967 0 1.909-.099 2.835-.247v59.74c0 1.562-1.271 2.834-2.835 2.834zm0-240.982c1.564 0 2.835 1.272 2.835 2.835v80.657c0 1.563-1.272 2.835-2.835 2.835h-22.64v-86.327zm-.655-73.642 4.492 8.824h-26.477v-28.211h26.477l-4.494 8.827c-1.681 3.305-1.681 7.252.002 10.56z"/><path d="m89.905 48.05v415.9c0 4.142 3.357 7.5 7.5 7.5s7.5-3.358 7.5-7.5v-415.9c0-4.142-3.357-7.5-7.5-7.5s-7.5 3.358-7.5 7.5z"/></g></g></svg>